<?xml version="1.0" encoding="UTF-8"?>
<svg id="a" version="1.1" viewBox="0 0 256 256" xmlns="http://www.w3.org/2000/svg" xmlns:cc="http://creativecommons.org/ns#" xmlns:dc="http://purl.org/dc/elements/1.1/" xmlns:rdf="http://www.w3.org/1999/02/22-rdf-syntax-ns#">
 <title>Волгоградская областная инфекционная больница № 2</title>
 <metadata>
  <rdf:RDF>
   <cc:Work rdf:about="">
    <dc:format>image/svg+xml</dc:format>
    <dc:type rdf:resource="http://purl.org/dc/dcmitype/StillImage"/>
    <dc:title>Волгоградская областная инфекционная больница № 2</dc:title>
    <dc:creator>
     <cc:Agent>
      <dc:title>Алексей Черняев</dc:title>
     </cc:Agent>
    </dc:creator>
    <dc:language>ru</dc:language>
    <cc:license rdf:resource="http://artlibre.org/licence/lal"/>
   </cc:Work>
   <cc:License rdf:about="http://artlibre.org/licence/lal">
    <cc:permits rdf:resource="http://creativecommons.org/ns#Reproduction"/>
    <cc:permits rdf:resource="http://creativecommons.org/ns#Distribution"/>
    <cc:permits rdf:resource="http://creativecommons.org/ns#DerivativeWorks"/>
    <cc:requires rdf:resource="http://creativecommons.org/ns#ShareAlike"/>
    <cc:requires rdf:resource="http://creativecommons.org/ns#Notice"/>
    <cc:requires rdf:resource="http://creativecommons.org/ns#Attribution"/>
   </cc:License>
  </rdf:RDF>
 </metadata>
 <g stroke-width="0">
  <path d="m192.7 11.681c-3.9174-3.9174-10.225-3.9174-14.142 0-3.9174 3.9174-3.9174 10.225 0 14.142l1.0607 1.0607-29.928 29.928a100 100 0 0 0-112.2 20.277 100 100 0 0 0 0 141.42 100 100 0 0 0 141.42 0 100 100 0 0 0 20.275-112.2l29.929-29.929 1.0607 1.0607c3.9174 3.9174 10.225 3.9174 14.142 0 3.9174-3.9174 3.9174-10.225 0-14.142zm-1.0607 27.224 25.456 25.456-38.873 38.873a83 83 0 0 1-11.332 103.26 83 83 0 0 1-117.38 0 83 83 0 0 1 0-117.38 83 83 0 0 1 103.25-11.33z" fill="#16253b" opacity=".99975"/>
  <g fill="#d40000">
   <path d="m108.2 72.799a75 75 0 0 0-75 75 75 75 0 0 0 75 75 75 75 0 0 0 75-75 75 75 0 0 0-75-75zm-9.25 30h18.5c2.77 0 5 2.23 5 5v25.75h25.75c2.77 0 5 2.23 5 5v18.5c0 2.77-2.23 5-5 5h-25.75v25.75c0 2.77-2.23 5-5 5h-18.5c-2.77 0-5-2.23-5-5v-25.75h-25.75c-2.77 0-5-2.23-5-5l4e-6 -18.5c-3e-6 -2.77 2.23-5 5-5h25.75v-25.75c0-2.77 2.23-5 5-5z" opacity=".9975"/>
   <circle cx="179.29" cy="67.143" r="5" opacity=".99975"/>
   <circle cx="230.64" cy="37.357" r="4.5" opacity=".99975"/>
   <circle cx="230.06" cy="15.657" r="8.5" opacity=".99975"/>
   <circle cx="178.29" cy="86.857" r="4" opacity=".99975"/>
   <circle cx="201.41" cy="62.729" r="7" opacity=".99975"/>
  </g>
 </g>
</svg>
