<?xml version="1.0" encoding="UTF-8" standalone="no"?>
<svg
   xmlns:dc="http://purl.org/dc/elements/1.1/"
   xmlns:cc="http://creativecommons.org/ns#"
   xmlns:rdf="http://www.w3.org/1999/02/22-rdf-syntax-ns#"
   xmlns:svg="http://www.w3.org/2000/svg"
   xmlns="http://www.w3.org/2000/svg"
   xmlns:sodipodi="http://sodipodi.sourceforge.net/DTD/sodipodi-0.dtd"
   xmlns:inkscape="http://www.inkscape.org/namespaces/inkscape"
   width="256.0px"
   height="256.0px"
   viewBox="0 0 256.0 256.0"
   version="1.1"
   id="SVGRoot"
   sodipodi:docname="filledlogo.svg"
   inkscape:version="1.0.2 (e86c870879, 2021-01-15)">
  <defs
     id="defs1404">
    <filter
       inkscape:collect="always"
       style="color-interpolation-filters:sRGB"
       id="filter846"
       x="-0.0027195505"
       width="1.0054391"
       y="-0.0026807286"
       height="1.0053615">
      <feGaussianBlur
         inkscape:collect="always"
         stdDeviation="0.22131324"
         id="feGaussianBlur848" />
    </filter>
  </defs>
  <sodipodi:namedview
     id="base"
     pagecolor="#ffffff"
     bordercolor="#666666"
     borderopacity="1.0"
     inkscape:pageopacity="0.0"
     inkscape:pageshadow="2"
     inkscape:zoom="1.4"
     inkscape:cx="113.04027"
     inkscape:cy="161.02485"
     inkscape:document-units="px"
     inkscape:current-layer="layer1"
     inkscape:document-rotation="0"
     showgrid="true"
     inkscape:window-width="1366"
     inkscape:window-height="705"
     inkscape:window-x="-8"
     inkscape:window-y="-8"
     inkscape:window-maximized="1"
     showguides="true">
    <inkscape:grid
       type="xygrid"
       id="grid1974" />
  </sodipodi:namedview>
  <metadata
     id="metadata1407">
    <rdf:RDF>
      <cc:Work
         rdf:about="">
        <dc:format>image/svg+xml</dc:format>
        <dc:type
           rdf:resource="http://purl.org/dc/dcmitype/StillImage" />
        <dc:title></dc:title>
      </cc:Work>
    </rdf:RDF>
  </metadata>
  <g
     inkscape:groupmode="layer"
     id="layer2"
     inkscape:label="air">
    <path
       id="rect839"
       style="opacity:0.99525;fill:#ffffff;stroke:#ffffff;stroke-width:0;stroke-linecap:round;stroke-linejoin:round;filter:url(#filter846)"
       d="m 190.72439,35.8 -39.52617,39.526164 a 85,85 0 0 0 -102.602292,13.506844 85,85 0 0 0 0,120.208162 85,85 0 0 0 120.208152,0 85,85 0 0 0 11.36342,-106.11574 l 38.84116,-38.841159 z" />
  </g>
  <g
     inkscape:label="Flask"
     inkscape:groupmode="layer"
     id="layer1"
     style="display:inline">
    <path
       id="path2018"
       style="opacity:0.99975;fill:#16253b;fill-opacity:1;stroke:#16253b;stroke-width:0;stroke-linecap:round;stroke-linejoin:round;stroke-miterlimit:4;stroke-dasharray:none;stroke-opacity:1"
       d="m 192.70027,11.680934 c -3.91737,-3.9173711 -10.22476,-3.9173707 -14.14214,0 -3.91737,3.917371 -3.91737,10.224765 0,14.142136 l 1.06067,1.06066 -29.92775,29.927743 a 100,100 0 0 0 -112.200718,20.276839 100,100 0 0 0 0,141.421358 100,100 0 0 0 141.421358,0 100,100 0 0 0 20.27546,-112.19934 l 29.92912,-29.929125 1.06066,1.06066 c 3.91737,3.917372 10.22476,3.917371 14.14214,0 3.91737,-3.917371 3.91737,-10.224764 0,-14.142135 z m -1.06066,27.223612 25.45584,25.455844 -38.87291,38.87292 a 83,83 0 0 1 -11.33167,103.25554 83,83 0 0 1 -117.379723,0 83,83 0 0 1 0,-117.379723 83,83 0 0 1 103.254163,-11.330282 z" />
    <path
       id="path2024"
       style="display:inline;opacity:0.9975;fill:#d40000;fill-opacity:1;stroke:#16253b;stroke-width:0;stroke-linecap:round;stroke-linejoin:round;stroke-miterlimit:4;stroke-dasharray:none;stroke-opacity:1"
       d="m 108.20101,72.79899 a 75,75 0 0 0 -75,75 75,75 0 0 0 75,75 75,75 0 0 0 75,-75 75,75 0 0 0 -75,-75 z m -9.249996,30 h 18.499996 c 2.77,0 5,2.23 5,5 v 25.75 h 25.75 c 2.77,0 5,2.23 5,5 v 18.5 c 0,2.77 -2.23,5 -5,5 h -25.75 v 25.75 c 0,2.77 -2.23,5 -5,5 H 98.951012 c -2.770003,0 -4.999999,-2.23 -5.000002,-5 v -25.75 h -25.75 c -2.770004,0 -4.999999,-2.23 -5.000002,-5 l 4e-6,-18.5 c -3e-6,-2.77 2.229997,-5 5,-5 h 25.75 v -25.75 c 0,-2.77 2.229996,-5 5.000002,-5 z" />
    <circle
       style="display:inline;opacity:0.99975;fill:#d40000;fill-opacity:1;stroke:#ffffff;stroke-width:0;stroke-linecap:round;stroke-linejoin:round;stroke-miterlimit:4;stroke-dasharray:none;stroke-opacity:1"
       id="path2277"
       cx="179.28574"
       cy="67.142906"
       r="4.9999995" />
    <circle
       style="display:inline;opacity:0.99975;fill:#d40000;fill-opacity:1;stroke:#ffffff;stroke-width:0;stroke-linecap:round;stroke-linejoin:round;stroke-miterlimit:4;stroke-dasharray:none;stroke-opacity:1"
       id="circle2279"
       cx="230.64288"
       cy="37.357143"
       r="4.4999995" />
    <circle
       style="display:inline;opacity:0.99975;fill:#d40000;fill-opacity:1;stroke:#ffffff;stroke-width:0;stroke-linecap:round;stroke-linejoin:round;stroke-miterlimit:4;stroke-dasharray:none;stroke-opacity:1"
       id="path2281"
       cx="230.05713"
       cy="15.657134"
       r="8.499999" />
    <circle
       style="display:inline;opacity:0.99975;fill:#d40000;fill-opacity:1;stroke:#ffffff;stroke-width:0;stroke-linecap:round;stroke-linejoin:round;stroke-miterlimit:4;stroke-dasharray:none;stroke-opacity:1"
       id="circle863"
       cx="178.28569"
       cy="86.857132"
       r="3.9999995" />
    <circle
       style="display:inline;opacity:0.99975;fill:#d40000;fill-opacity:1;stroke:#ffffff;stroke-width:0;stroke-linecap:round;stroke-linejoin:round;stroke-miterlimit:4;stroke-dasharray:none;stroke-opacity:1"
       id="circle867"
       cx="201.41429"
       cy="62.728573"
       r="6.9999995" />
  </g>
</svg>
