<?xml version="1.0" encoding="UTF-8"?>
<svg id="a" version="1.1" viewBox="0 0 350 350" xmlns="http://www.w3.org/2000/svg" xmlnsCc="http://creativecommons.org/ns#" xmlnsDc="http://purl.org/dc/elements/1.1/" xmlnsRdf="http://www.w3.org/1999/02/22-rdf-syntax-ns#">
 <title>Волгоградская областная инфекционная больница № 2</title>
 <metadata>
  <rdfRDF>
   <ccWork rdfAbout="">
    <dcformat>image/svg+xml</dcformat>
    <dctype rdfResource="http://purl.org/dc/dcmitype/StillImage"/>
    <dctitle>Волгоградская областная инфекционная больница № 2</dctitle>
    <dccreator>
     <ccAgent>
      <dctitle>Алексей Черняев</dctitle>
     </ccAgent>
    </dccreator>
    <cclicense rdfResource="http://artlibre.org/licence/lal"/>
    <dclanguage>ru</dclanguage>
   </ccWork>
  </rdfRDF>
 </metadata>
 <g transform="translate(47.857 42.857)" stroke-width="0">
  <circle cx="127.14" cy="132.14" r="175" fill="#fff" opacity=".99975"/>
  <path d="m192.11 16.346c-3.9174-3.9174-10.225-3.9174-14.142 0-3.9174 3.9174-3.9174 10.225 0 14.142l1.0607 1.0607-29.928 29.928a100 100 0 0 0-112.2 20.277 100 100 0 0 0 0 141.42 100 100 0 0 0 141.42 0 100 100 0 0 0 20.275-112.2l29.929-29.929 1.0607 1.0607c3.9174 3.9174 10.225 3.9174 14.142 0 3.9174-3.9174 3.9174-10.225 0-14.142zm-1.0607 27.224 25.456 25.456-38.873 38.873a83 83 0 0 1-11.332 103.26 83 83 0 0 1-117.38 0 83 83 0 0 1 0-117.38 83 83 0 0 1 103.25-11.33z" fill="#16253b" opacity=".99975"/>
  <g fill="#d40000">
   <path d="m107.61 77.464a75 75 0 0 0-75 75 75 75 0 0 0 75 75 75 75 0 0 0 75-75 75 75 0 0 0-75-75zm-9.25 30h18.5c2.77 0 5 2.23 5 5v25.75h25.75c2.77 0 5 2.23 5 5v18.5c0 2.77-2.23 5-5 5h-25.75v25.75c0 2.77-2.23 5-5 5h-18.5c-2.77 0-5-2.23-5-5v-25.75h-25.75c-2.77 0-5-2.23-5-5l4e-6 -18.5c-3e-6 -2.77 2.23-5 5-5h25.75v-25.75c0-2.77 2.23-5 5-5z" opacity=".9975"/>
   <circle cx="178.7" cy="71.808" r="5" opacity=".99975"/>
   <circle cx="230.06" cy="42.022" r="4.5" opacity=".99975"/>
   <circle cx="229.47" cy="20.322" r="8.5" opacity=".99975"/>
   <circle cx="177.7" cy="91.522" r="4" opacity=".99975"/>
   <circle cx="200.83" cy="67.393" r="7" opacity=".99975"/>
  </g>
 </g>
</svg>
