<?xml version="1.0" standalone="no"?>
<!DOCTYPE svg PUBLIC "-//W3C//DTD SVG 20010904//EN"
 "http://www.w3.org/TR/2001/REC-SVG-20010904/DTD/svg10.dtd">
<svg version="1.0" xmlns="http://www.w3.org/2000/svg"
 width="700.000000pt" height="700.000000pt" viewBox="0 0 700.000000 700.000000"
 preserveAspectRatio="xMidYMid meet">
<metadata>
Created by potrace 1.11, written by Peter Selinger 2001-2013
</metadata>
<g transform="translate(0.000000,700.000000) scale(0.100000,-0.100000)"
fill="#000000" stroke="none">
<path d="M6246 6798 c-190 -41 -251 -276 -104 -402 88 -75 213 -73 302 6 173
152 27 445 -198 396z"/>
<path d="M4987 6746 c-186 -67 -242 -296 -108 -449 l30 -33 -409 -409 c-385
-385 -410 -408 -432 -397 -93 46 -385 144 -500 168 -125 25 -271 47 -408 60
-43 5 -362 4 -410 0 -210 -20 -372 -50 -552 -102 -193 -55 -422 -151 -597
-251 -130 -74 -379 -254 -460 -332 -10 -9 -39 -37 -67 -62 -47 -44 -118 -119
-194 -204 -200 -225 -400 -575 -507 -889 -35 -105 -90 -307 -99 -366 -3 -19
-7 -42 -10 -50 -2 -8 -6 -36 -9 -62 -3 -25 -8 -57 -10 -69 -24 -120 -23 -524
1 -686 70 -478 223 -868 487 -1242 33 -47 63 -88 67 -91 3 -3 25 -30 50 -60
134 -165 318 -338 500 -472 216 -159 485 -297 745 -382 117 -39 130 -42 245
-69 93 -22 141 -31 280 -52 124 -18 372 -24 540 -13 463 31 946 200 1340 469
195 134 436 355 576 529 242 300 413 630 515 990 14 52 13 46 33 130 24 105
52 279 61 390 5 69 6 361 1 420 -13 141 -27 237 -52 355 -8 39 -16 79 -19 90
-19 91 -70 248 -127 388 -22 54 -37 101 -34 105 4 4 187 188 408 409 l402 402
33 -29 c51 -45 105 -69 167 -74 207 -17 357 196 271 383 -18 37 -178 203 -742
767 -396 395 -734 731 -751 746 -60 53 -174 73 -255 44z m598 -1156 c187 -187
341 -343 342 -347 2 -5 -235 -246 -526 -537 l-529 -529 32 -51 c125 -199 236
-492 285 -752 49 -260 49 -581 0 -830 -5 -28 -12 -61 -14 -75 -11 -60 -68
-247 -101 -331 -228 -581 -666 -1029 -1249 -1277 -127 -53 -357 -120 -470
-136 -27 -4 -58 -9 -69 -11 -109 -20 -433 -26 -570 -12 -718 78 -1367 502
-1724 1126 -110 191 -218 468 -246 627 -3 17 -9 44 -13 60 -3 17 -7 35 -8 40
-2 17 -16 109 -22 140 -9 52 -12 448 -3 495 4 25 11 68 14 95 3 28 14 94 25
145 106 509 400 983 806 1303 33 26 65 52 72 57 90 73 369 227 508 279 33 13
76 29 95 36 95 36 283 81 420 100 184 26 516 26 652 -1 13 -2 50 -9 83 -15
251 -44 484 -133 762 -290 l43 -24 527 528 c291 290 530 527 533 527 3 0 159
-153 345 -340z"/>
<path d="M5485 5475 c-5 -2 -22 -6 -37 -9 -15 -4 -43 -20 -63 -37 -61 -54 -82
-123 -59 -199 24 -82 92 -133 180 -133 66 0 120 27 159 82 26 37 30 51 29 105
-1 77 -27 125 -87 160 -39 23 -99 38 -122 31z"/>
<path d="M4845 5286 c-132 -58 -85 -256 61 -256 50 0 97 31 118 78 52 115 -63
229 -179 178z"/>
<path d="M2799 5006 c-2 -3 -30 -7 -61 -10 -32 -3 -74 -8 -95 -12 -20 -4 -44
-8 -52 -9 -176 -18 -511 -147 -717 -276 -242 -151 -473 -377 -629 -614 -132
-200 -244 -467 -289 -687 -16 -79 -19 -94 -36 -213 -10 -71 -7 -427 5 -500 29
-184 78 -367 132 -495 239 -567 684 -984 1253 -1174 145 -49 183 -58 360 -86
142 -22 424 -24 557 -4 353 53 650 171 924 366 94 67 115 85 229 192 299 278
521 692 596 1111 39 219 40 489 3 710 -92 549 -416 1047 -885 1360 -99 67
-307 175 -399 208 -65 24 -231 76 -264 83 -44 9 -178 33 -218 39 -46 7 -409
16 -414 11z m470 -834 c37 -18 70 -57 76 -88 2 -10 4 -180 4 -376 l1 -357 373
-3 c413 -3 406 -2 447 -70 17 -29 19 -55 20 -315 0 -273 0 -286 -21 -323 -18
-32 -49 -57 -81 -66 -5 -1 -172 -2 -373 -3 l-364 -1 -3 -372 c-3 -350 -4 -375
-23 -405 -36 -60 -53 -63 -363 -63 -174 0 -291 4 -309 11 -33 12 -60 39 -73
74 -6 16 -10 176 -10 391 l0 364 -373 0 c-395 0 -386 -1 -434 46 -29 28 -33
74 -33 346 0 316 3 329 69 366 38 21 48 22 405 22 l365 0 3 378 c3 359 4 378
23 404 41 54 56 57 360 57 248 1 284 -1 314 -17z"/>
<path d="M4841 4726 c-98 -32 -97 -168 0 -201 70 -25 141 25 141 100 0 73 -72
124 -141 101z"/>
<path d="M6240 6078 c-67 -46 -72 -140 -9 -192 62 -52 149 -33 184 41 52 110
-75 219 -175 151z"/>
</g>
</svg>
